<?xml version="1.0" encoding="UTF-8" standalone="no"?>
<!DOCTYPE svg PUBLIC "-//W3C//DTD SVG 1.1//EN"
 "http://www.w3.org/Graphics/SVG/1.1/DTD/svg11.dtd">
<!-- Generated by graphviz version 2.40.1 (20161225.0304)
 -->
<!-- Title: %4373 Pages: 1 -->
<svg width="764pt" height="152pt"
 viewBox="0.00 0.00 763.87 152.00" xmlns="http://www.w3.org/2000/svg" xmlns:xlink="http://www.w3.org/1999/xlink">
<g id="graph0" class="graph" transform="scale(1 1) rotate(0) translate(4 148)">
<title>%4373</title>
<polygon fill="#ffffff" stroke="transparent" points="-4,4 -4,-148 759.874,-148 759.874,4 -4,4"/>
<g id="clust1" class="cluster">
<title>cluster_axmldec</title>
<polygon fill="#f2f2f2" stroke="#f2f2f2" points="123.7139,-8 123.7139,-136 645.5859,-136 645.5859,-8 123.7139,-8"/>
<text text-anchor="middle" x="384.6499" y="-120.8" font-family="Courier,monospace" font-size="14.00" fill="#191970">axmldec &#45;o output.xml AndroidManifest.xml</text>
</g>
<!-- read_xml -->
<g id="node1" class="node">
<title>read_xml</title>
<g id="a_node1"><a xlink:href="http://www.boost.org/doc/libs/1_64_0/doc/html/boost/property_tree/xml_parser/read_xml_idp683796192.html" xlink:title="boost_pt::read_xml()">
<polygon fill="#dedede" stroke="transparent" points="291.749,-52 131.7021,-52 131.7021,-16 291.749,-16 291.749,-52"/>
<text text-anchor="middle" x="211.7256" y="-30.4" font-family="Courier,monospace" font-size="12.00" fill="#191970">boost_pt::read_xml()</text>
</a>
</g>
</g>
<!-- ptree -->
<g id="node4" class="node">
<title>ptree</title>
<g id="a_node4"><a xlink:href="http://www.boost.org/doc/libs/1_64_0/doc/html/property_tree.html" xlink:title="Boost\nProperty Tree">
<text text-anchor="middle" x="381.0493" y="-63.8" font-family="Times,serif" font-size="14.00" fill="#000000">Boost</text>
<text text-anchor="middle" x="381.0493" y="-49.8" font-family="Times,serif" font-size="14.00" fill="#000000">Property Tree</text>
</a>
</g>
</g>
<!-- read_xml&#45;&gt;ptree -->
<g id="edge2" class="edge">
<title>read_xml&#45;&gt;ptree</title>
<path fill="none" stroke="#000000" d="M291.9247,-46.7884C303.0663,-48.565 314.3112,-50.3581 324.8848,-52.0441"/>
<polygon fill="#000000" stroke="#000000" points="324.3649,-55.5054 334.7914,-53.6238 325.4673,-48.5927 324.3649,-55.5054"/>
</g>
<!-- read_axml -->
<g id="node2" class="node">
<title>read_axml</title>
<g id="a_node2"><a xlink:href="https://github.com/ytsutano/axmldec/blob/master/include/jitana/util/axml_parser.hpp" xlink:title="jitana::read_axml()">
<polygon fill="#dedede" stroke="transparent" points="288.048,-106 135.4032,-106 135.4032,-70 288.048,-70 288.048,-106"/>
<text text-anchor="middle" x="211.7256" y="-84.4" font-family="Courier,monospace" font-size="12.00" fill="#191970">jitana::read_axml()</text>
</a>
</g>
</g>
<!-- read_axml&#45;&gt;ptree -->
<g id="edge1" class="edge">
<title>read_axml&#45;&gt;ptree</title>
<path fill="none" stroke="#000000" d="M288.4607,-75.764C300.6426,-73.8215 313.0453,-71.8438 324.6481,-69.9936"/>
<polygon fill="#000000" stroke="#000000" points="325.2888,-73.4358 334.6129,-68.4046 324.1865,-66.5231 325.2888,-73.4358"/>
</g>
<!-- write_xml -->
<g id="node3" class="node">
<title>write_xml</title>
<g id="a_node3"><a xlink:href="http://www.boost.org/doc/libs/1_64_0/doc/html/boost/property_tree/xml_parser/write_xml_idp683815200.html" xlink:title="boost_pt::write_xml()">
<polygon fill="#dedede" stroke="transparent" points="637.6984,-79 470.2489,-79 470.2489,-43 637.6984,-43 637.6984,-79"/>
<text text-anchor="middle" x="553.9736" y="-57.4" font-family="Courier,monospace" font-size="12.00" fill="#191970">boost_pt::write_xml()</text>
</a>
</g>
</g>
<!-- decoded_xml -->
<g id="node7" class="node">
<title>decoded_xml</title>
<text text-anchor="middle" x="718.23" y="-70.8" font-family="Times,serif" font-size="14.00" fill="#000000">Decoded</text>
<text text-anchor="middle" x="718.23" y="-56.8" font-family="Times,serif" font-size="14.00" fill="#000000">Standard</text>
<text text-anchor="middle" x="718.23" y="-42.8" font-family="Times,serif" font-size="14.00" fill="#000000">Text XML</text>
</g>
<!-- write_xml&#45;&gt;decoded_xml -->
<g id="edge6" class="edge">
<title>write_xml&#45;&gt;decoded_xml</title>
<path fill="none" stroke="#000000" d="M638.0265,-61C649.0398,-61 660.007,-61 670.1352,-61"/>
<polygon fill="#000000" stroke="#000000" points="670.3529,-64.5001 680.3529,-61 670.3529,-57.5001 670.3529,-64.5001"/>
</g>
<!-- ptree&#45;&gt;write_xml -->
<g id="edge3" class="edge">
<title>ptree&#45;&gt;write_xml</title>
<path fill="none" stroke="#000000" d="M427.3899,-61C437.5005,-61 448.5517,-61 459.7781,-61"/>
<polygon fill="#000000" stroke="#000000" points="460.1155,-64.5001 470.1154,-61 460.1154,-57.5001 460.1155,-64.5001"/>
</g>
<!-- axml -->
<g id="node5" class="node">
<title>axml</title>
<text text-anchor="middle" x="44.3569" y="-90.8" font-family="Times,serif" font-size="14.00" fill="#000000">Android</text>
<text text-anchor="middle" x="44.3569" y="-76.8" font-family="Times,serif" font-size="14.00" fill="#000000">Binary XML</text>
</g>
<!-- axml&#45;&gt;read_axml -->
<g id="edge4" class="edge">
<title>axml&#45;&gt;read_axml</title>
<path fill="none" stroke="#000000" d="M88.7692,-88C100.0787,-88 112.6258,-88 125.2576,-88"/>
<polygon fill="#000000" stroke="#000000" points="125.3841,-91.5001 135.3841,-88 125.3841,-84.5001 125.3841,-91.5001"/>
</g>
<!-- txml -->
<g id="node6" class="node">
<title>txml</title>
<text text-anchor="middle" x="44.3569" y="-36.8" font-family="Times,serif" font-size="14.00" fill="#000000">Standard</text>
<text text-anchor="middle" x="44.3569" y="-22.8" font-family="Times,serif" font-size="14.00" fill="#000000">Text XML</text>
</g>
<!-- txml&#45;&gt;read_xml -->
<g id="edge5" class="edge">
<title>txml&#45;&gt;read_xml</title>
<path fill="none" stroke="#000000" d="M82.3355,-34C94.1321,-34 107.6767,-34 121.4609,-34"/>
<polygon fill="#000000" stroke="#000000" points="121.5187,-37.5001 131.5187,-34 121.5187,-30.5001 121.5187,-37.5001"/>
</g>
</g>
</svg>
